<?xml version="1.0" standalone="no"?><!DOCTYPE svg PUBLIC "-//W3C//DTD SVG 1.1//EN" "http://www.w3.org/Graphics/SVG/1.1/DTD/svg11.dtd"><svg t="1616225944667" class="icon" viewBox="0 0 1024 1024" version="1.1" xmlns="http://www.w3.org/2000/svg" p-id="800" xmlns:xlink="http://www.w3.org/1999/xlink" width="200" height="200"><defs><style type="text/css"></style></defs><path d="M737.834667 204.501333a42.666667 42.666667 0 1 1 60.330666 60.330667l-256 256a42.666667 42.666667 0 0 1-59.008 1.28l-256-234.666667a42.666667 42.666667 0 1 1 57.685334-62.890666l225.877333 207.061333 227.114667-227.114667z" fill="#000000" p-id="801"></path><path d="M737.834667 503.168a42.666667 42.666667 0 1 1 60.330666 60.330667l-256 256a42.666667 42.666667 0 0 1-59.008 1.28l-256-234.666667a42.666667 42.666667 0 0 1 57.685334-62.890667l225.877333 207.061334 227.114667-227.114667z" fill="#000000" opacity=".3" p-id="802"></path></svg>